# xmcd CD database file
#
# Track frame offsets:
#	150
#	17040
#	38772
#	54618
#	79268
#	92340
#	122637
#	145677
#	166013
#	182867
#	195666
#	216636
#	233436
#	251091
#
# Disc length: 3529 seconds
#
# Revision: 0
# Processed by: cddbd v1.5.2PL0 Copyright (c) Steve Scherf et al.
# Submitted via: CDex 1.70beta2
#
DISCID=b70dc70e
DTITLE=Rodolphe Raffalli - Le Retour...
DYEAR=2008
DGENRE=Jazz
TTITLE0=Strange Monk
TTITLE1=Tomara
TTITLE2=You'd be so nice to come home to
TTITLE3=Copacabana
TTITLE4=Baraka
TTITLE5=She's funny that way
TTITLE6=Comme un p'tit coqu'licot
TTITLE7=Les feuilles mortes
TTITLE8=Micro
TTITLE9=Guarani
TTITLE10=Valsecito para Elena
TTITLE11=Gadjo
TTITLE12=Syracuse
TTITLE13=Le retour
EXTD=YEAR: 2008
EXTT0=
EXTT1=
EXTT2=
EXTT3=
EXTT4=
EXTT5=
EXTT6=
EXTT7=
EXTT8=
EXTT9=
EXTT10=
EXTT11=
EXTT12=
EXTT13=
PLAYORDER=
